<svg width="192" height="192" viewBox="0 0 192 192" xmlns="http://www.w3.org/2000/svg" role="img" aria-label="How Long Since">
  <!-- Full-bleed square so generated maskable/any icons have no transparent corners;
       the platform applies its own rounding. Soft Daylight surface; off-center clock,
       elapsed-time wedge between the two hands holding the "?", and an outer arc of
       time echoing the sweep off-frame. Mirrored (tokenized) in AppShell.tsx. -->
  <rect width="192" height="192" fill="#FAF8F4" />
  <path d="M-40.06 68.01 A103.59 103.59 0 1 1 104.84 207.36" fill="none" stroke="#E4E0D8" stroke-width="14.27" />
  <path d="M49.96 119.81 L49.96 42.12 A77.69 77.69 0 0 1 97.81 180.97 Z" fill="#F6E0D9" />
  <path d="M49.96 119.81 L49.96 48.28" fill="none" stroke="#3A3330" stroke-width="12.07" stroke-linecap="round" />
  <path d="M49.96 119.81 L94.35 176.53" fill="none" stroke="#C0794C" stroke-width="12.07" stroke-linecap="round" />
  <path d="M81.2 94.55 C81.2 84.26 88.06 78.56 94.92 78.56 C102.35 78.56 107.5 83.7 107.5 91.12 C107.5 97.4 102.93 100.84 98.35 104.26 C94.92 106.78 93.44 109.99 93.44 113.99" fill="none" stroke="#3A3330" stroke-width="9.16" stroke-linecap="round" />
  <circle cx="93.21" cy="128.27" r="6.29" fill="#3A3330" />
  <circle cx="49.96" cy="119.81" r="12.33" fill="#D98C63" />
</svg>
